# xmcd CD database file
#
# Track frame offsets:
#	150
#	19155
#	30057
#	47800
#	60300
#	69095
#	89460
#	110307
#	124952
#	138612
#	154235
#	163515
#
# Disc length: 2526 seconds
#
# Revision: 0
# Processed by: cddbd v1.5PL3 Copyright (c) Steve Scherf et al.
# Submitted via: CDex 1.51
#
DISCID=9309dc0c
DTITLE=Kitaro - Silk Road I
DYEAR=1981
DGENRE=New Age
TTITLE0=Silk Road (Shichu No Michi)
TTITLE1=Bell Tower (Shoro)
TTITLE2=Heavenly Father (Tenchi Sohzo Shin)
TTITLE3=The Great River (Harukanaru Taiga)
TTITLE4=The Great Wall Of China (Chohjo)
TTITLE5=Flying Celestial Nymphs (Hiten)
TTITLE6=Silk Road Fantasy (Silk Road Genso)
TTITLE7=Shimmering Light (Kikari To Kage)
TTITLE8=Westbound (Nishi Ni Mukkatte)
TTITLE9=Time (Toki No Nagare)
TTITLE10=Bodhisattva (Bosatsu)
TTITLE11=Everlasting Road (Towa No Michi)
EXTD=YEAR: 1981
EXTT0=
EXTT1=
EXTT2=
EXTT3=
EXTT4=
EXTT5=
EXTT6=
EXTT7=
EXTT8=
EXTT9=
EXTT10=
EXTT11=
PLAYORDER=
